<svg viewBox="0 0 100 100" xmlns="http://www.w3.org/2000/svg" width="500" height="500">

   
    <!-- outline -->
    <g transform="translate(50 50)">
        
        <svg 
            x="-50" 
            y="-50" 
            width="100" 
            height="100" 
            viewBox="0 0 100 100"
        >
            <path 
                d="M 14.516 82.04 C 6.126 75.683 3.869 62.126 6.143 51.149 C 11.631 23.509 35.522 15.822 50.302 15.661 C 74.183 15.531 89.85 34.503 91.554 52.613 C 92.341 61.016 90.263 70.463 86.759 75.528"
                fill="transparent"
                stroke="#ffffff"
                stroke-width="8"
                stroke-linecap="round"
                stroke-linejoin="round"
            />
        </svg>
    </g>
    <!-- eyes -->
    <g transform="translate(50 50)">
        
        <svg 
            x="-50" 
            y="-50" 
            width="100" 
            height="100" 
            viewBox="0 0 100 100"
        >
            <path 
                d="M 23.516 44.491 c -4.404 1.473 -1.808 13.365 2.93 12.54 c 3.78 -0.467 1.77 -12.501 -2.55 -12.555 M 60.925 37.386 c -4.101 1.253 -1.194 13.749 4.198 12.797 c 4.711 -1.419 0.141 -13.815 -4.019 -12.908"
                fill="#ffffff"
                stroke="#ffffff"
                stroke-width="7.5"
                stroke-linecap="round"
                stroke-linejoin="round"
            />
        </svg>
    </g>
    <!-- mouth -->
    <g transform="translate(50 50)">
        
        <svg 
            x="-50" 
            y="-50" 
            width="100" 
            height="100" 
            viewBox="0 0 100 100"
        >
            <path 
                d="M 40.577 66.891 l 17.338 -5.469"
                fill="transparent"
                stroke="#ffffff"
                stroke-width="8"
                stroke-linecap="round"
                stroke-linejoin="round"
            />
        </svg>
    </g>
</svg>